<svg width="114" height="19" viewBox="0 0 114 19" fill="none" xmlns="http://www.w3.org/2000/svg">
<path d="M7.992 18.24C6.44 18.24 5.12 18.016 4.032 17.568C2.944 17.12 2.12 16.528 1.56 15.792C1 15.056 0.704 14.256 0.672 13.392C0.672 13.248 0.72 13.128 0.816 13.032C0.928 12.936 1.056 12.888 1.2 12.888H4.392C4.584 12.888 4.736 12.92 4.848 12.984C4.976 13.048 5.112 13.16 5.256 13.32C5.464 13.704 5.784 14.024 6.216 14.28C6.664 14.52 7.256 14.64 7.992 14.64C8.856 14.64 9.52 14.512 9.984 14.256C10.448 13.984 10.68 13.616 10.68 13.152C10.68 12.816 10.56 12.544 10.32 12.336C10.08 12.112 9.696 11.92 9.168 11.76C8.64 11.584 7.88 11.392 6.888 11.184C4.952 10.8 3.504 10.216 2.544 9.432C1.584 8.648 1.104 7.528 1.104 6.072C1.104 5.08 1.376 4.2 1.92 3.432C2.48 2.648 3.264 2.04 4.272 1.608C5.296 1.176 6.48 0.959999 7.824 0.959999C9.232 0.959999 10.448 1.208 11.472 1.704C12.512 2.184 13.304 2.792 13.848 3.528C14.408 4.248 14.704 4.96 14.736 5.664C14.736 5.808 14.688 5.936 14.592 6.048C14.496 6.144 14.376 6.192 14.232 6.192H10.872C10.52 6.192 10.248 6.048 10.056 5.76C9.96 5.424 9.712 5.144 9.312 4.92C8.912 4.68 8.416 4.56 7.824 4.56C7.152 4.56 6.632 4.68 6.264 4.92C5.896 5.16 5.712 5.512 5.712 5.976C5.712 6.44 5.952 6.808 6.432 7.08C6.912 7.336 7.808 7.6 9.12 7.872C10.624 8.144 11.816 8.488 12.696 8.904C13.592 9.304 14.248 9.832 14.664 10.488C15.096 11.128 15.312 11.944 15.312 12.936C15.312 14.024 15 14.968 14.376 15.768C13.752 16.568 12.888 17.184 11.784 17.616C10.68 18.032 9.416 18.24 7.992 18.24ZM17.9764 18C17.8004 18 17.6484 17.944 17.5204 17.832C17.4084 17.72 17.3524 17.576 17.3524 17.4V1.56C17.3524 1.384 17.4084 1.24 17.5204 1.128C17.6484 1.016 17.8004 0.959999 17.9764 0.959999H20.9044C21.0804 0.959999 21.2244 1.016 21.3364 1.128C21.4484 1.24 21.5044 1.384 21.5044 1.56V9.576L24.6964 5.928C24.7284 5.896 24.7844 5.84 24.8644 5.76C24.9604 5.68 25.0564 5.624 25.1524 5.592C25.2484 5.544 25.3684 5.52 25.5124 5.52H28.8964C29.0404 5.52 29.1604 5.576 29.2564 5.688C29.3684 5.784 29.4244 5.912 29.4244 6.072C29.4244 6.216 29.3684 6.344 29.2564 6.456L25.0324 11.112L29.8564 17.088C29.9684 17.232 30.0244 17.352 30.0244 17.448C30.0244 17.608 29.9684 17.744 29.8564 17.856C29.7604 17.952 29.6324 18 29.4724 18H25.9924C25.7844 18 25.6244 17.968 25.5124 17.904C25.4164 17.84 25.2964 17.736 25.1524 17.592L21.5044 13.08V17.4C21.5044 17.56 21.4484 17.704 21.3364 17.832C21.2244 17.944 21.0804 18 20.9044 18H17.9764ZM32.1321 3.792C31.9561 3.792 31.8121 3.736 31.7001 3.624C31.5881 3.496 31.5321 3.344 31.5321 3.168V0.935999C31.5321 0.759999 31.5881 0.615999 31.7001 0.503999C31.8281 0.375999 31.9721 0.311999 32.1321 0.311999H35.1321C35.3081 0.311999 35.4521 0.375999 35.5641 0.503999C35.6921 0.615999 35.7561 0.759999 35.7561 0.935999V3.168C35.7561 3.344 35.6921 3.496 35.5641 3.624C35.4521 3.736 35.3081 3.792 35.1321 3.792H32.1321ZM32.1321 18C31.9721 18 31.8281 17.944 31.7001 17.832C31.5881 17.704 31.5321 17.56 31.5321 17.4V6.12C31.5321 5.944 31.5881 5.8 31.7001 5.688C31.8281 5.576 31.9721 5.52 32.1321 5.52H35.1321C35.3081 5.52 35.4521 5.576 35.5641 5.688C35.6921 5.8 35.7561 5.944 35.7561 6.12V17.4C35.7561 17.576 35.6921 17.72 35.5641 17.832C35.4521 17.944 35.3081 18 35.1321 18H32.1321ZM39.117 18C38.941 18 38.789 17.944 38.661 17.832C38.549 17.72 38.493 17.576 38.493 17.4V1.56C38.493 1.384 38.549 1.24 38.661 1.128C38.789 1.016 38.941 0.959999 39.117 0.959999H42.117C42.293 0.959999 42.437 1.016 42.549 1.128C42.661 1.24 42.717 1.384 42.717 1.56V17.4C42.717 17.56 42.661 17.704 42.549 17.832C42.437 17.944 42.293 18 42.117 18H39.117ZM46.0779 18C45.9019 18 45.7499 17.944 45.6219 17.832C45.5099 17.72 45.4539 17.576 45.4539 17.4V1.56C45.4539 1.384 45.5099 1.24 45.6219 1.128C45.7499 1.016 45.9019 0.959999 46.0779 0.959999H49.0779C49.2539 0.959999 49.3979 1.016 49.5099 1.128C49.6219 1.24 49.6779 1.384 49.6779 1.56V17.4C49.6779 17.56 49.6219 17.704 49.5099 17.832C49.3979 17.944 49.2539 18 49.0779 18H46.0779ZM53.2789 18C53.1189 18 52.9749 17.944 52.8469 17.832C52.7349 17.704 52.6789 17.56 52.6789 17.4V1.824C52.6789 1.648 52.7349 1.504 52.8469 1.392C52.9589 1.264 53.1029 1.2 53.2789 1.2H59.5909C61.9589 1.2 63.7989 1.768 65.1109 2.904C66.4229 4.024 67.1109 5.64 67.1749 7.752C67.1909 8.216 67.1989 8.832 67.1989 9.6C67.1989 10.368 67.1909 10.976 67.1749 11.424C67.0149 15.808 64.5269 18 59.7109 18H53.2789ZM59.5909 14.4C60.5989 14.4 61.3429 14.16 61.8229 13.68C62.3029 13.2 62.5589 12.432 62.5909 11.376C62.6229 10.912 62.6389 10.312 62.6389 9.576C62.6389 8.84 62.6229 8.248 62.5909 7.8C62.5589 6.776 62.2789 6.024 61.7509 5.544C61.2389 5.048 60.4789 4.8 59.4709 4.8H57.1909V14.4H59.5909ZM70.2649 18C70.1049 18 69.9609 17.944 69.8329 17.832C69.7209 17.704 69.6649 17.56 69.6649 17.4V6.144C69.6649 5.968 69.7209 5.824 69.8329 5.712C69.9449 5.584 70.0889 5.52 70.2649 5.52H73.1929C73.3689 5.52 73.5129 5.584 73.6249 5.712C73.7529 5.824 73.8169 5.968 73.8169 6.144V7.056C74.2649 6.56 74.7849 6.184 75.3769 5.928C75.9849 5.656 76.6569 5.52 77.3929 5.52H78.4729C78.6489 5.52 78.7929 5.576 78.9049 5.688C79.0169 5.8 79.0729 5.944 79.0729 6.12V8.736C79.0729 8.896 79.0169 9.04 78.9049 9.168C78.7929 9.28 78.6489 9.336 78.4729 9.336H76.0489C75.4089 9.336 74.9129 9.512 74.5609 9.864C74.2249 10.216 74.0569 10.712 74.0569 11.352V17.4C74.0569 17.576 73.9929 17.72 73.8649 17.832C73.7529 17.944 73.6089 18 73.4329 18H70.2649ZM81.3274 3.792C81.1514 3.792 81.0074 3.736 80.8954 3.624C80.7834 3.496 80.7274 3.344 80.7274 3.168V0.935999C80.7274 0.759999 80.7834 0.615999 80.8954 0.503999C81.0234 0.375999 81.1674 0.311999 81.3274 0.311999H84.3274C84.5034 0.311999 84.6474 0.375999 84.7594 0.503999C84.8874 0.615999 84.9514 0.759999 84.9514 0.935999V3.168C84.9514 3.344 84.8874 3.496 84.7594 3.624C84.6474 3.736 84.5034 3.792 84.3274 3.792H81.3274ZM81.3274 18C81.1674 18 81.0234 17.944 80.8954 17.832C80.7834 17.704 80.7274 17.56 80.7274 17.4V6.12C80.7274 5.944 80.7834 5.8 80.8954 5.688C81.0234 5.576 81.1674 5.52 81.3274 5.52H84.3274C84.5034 5.52 84.6474 5.576 84.7594 5.688C84.8874 5.8 84.9514 5.944 84.9514 6.12V17.4C84.9514 17.576 84.8874 17.72 84.7594 17.832C84.6474 17.944 84.5034 18 84.3274 18H81.3274ZM92.1523 18C91.9283 18 91.7523 17.952 91.6243 17.856C91.5123 17.744 91.4163 17.592 91.3363 17.4L86.7763 6.264C86.7603 6.216 86.7523 6.152 86.7523 6.072C86.7523 5.912 86.8003 5.784 86.8963 5.688C87.0083 5.576 87.1443 5.52 87.3043 5.52H90.1603C90.4963 5.52 90.7363 5.688 90.8803 6.024L93.4963 13.2L96.1363 6.024C96.1843 5.896 96.2643 5.784 96.3763 5.688C96.4883 5.576 96.6403 5.52 96.8323 5.52H99.7123C99.8563 5.52 99.9843 5.576 100.096 5.688C100.208 5.784 100.264 5.912 100.264 6.072L100.216 6.264L95.6803 17.4C95.6003 17.592 95.4963 17.744 95.3683 17.856C95.2403 17.952 95.0643 18 94.8403 18H92.1523ZM107.443 18.24C105.491 18.24 103.955 17.72 102.835 16.68C101.715 15.624 101.139 14.096 101.107 12.096V11.352C101.171 9.448 101.763 7.96 102.883 6.888C104.003 5.816 105.515 5.28 107.419 5.28C108.795 5.28 109.955 5.56 110.899 6.12C111.859 6.664 112.571 7.424 113.035 8.4C113.515 9.36 113.755 10.456 113.755 11.688V12.288C113.755 12.464 113.691 12.616 113.563 12.744C113.451 12.856 113.307 12.912 113.131 12.912H105.523V13.056C105.539 13.776 105.707 14.36 106.027 14.808C106.347 15.24 106.803 15.456 107.395 15.456C107.779 15.456 108.083 15.384 108.307 15.24C108.547 15.08 108.771 14.88 108.979 14.64C109.123 14.48 109.235 14.384 109.315 14.352C109.411 14.304 109.555 14.28 109.747 14.28H112.891C113.035 14.28 113.155 14.328 113.251 14.424C113.363 14.504 113.419 14.608 113.419 14.736C113.419 15.152 113.179 15.64 112.699 16.2C112.235 16.76 111.547 17.24 110.635 17.64C109.739 18.04 108.675 18.24 107.443 18.24ZM109.339 10.464V10.416C109.339 9.648 109.171 9.056 108.835 8.64C108.499 8.208 108.027 7.992 107.419 7.992C106.811 7.992 106.339 8.208 106.003 8.64C105.683 9.056 105.523 9.648 105.523 10.416V10.464H109.339Z" fill="#1B1B1B"/>
</svg>
